<svg width="124" height="54" viewBox="0 0 124 54" fill="none" xmlns="http://www.w3.org/2000/svg">
<g filter="url(#filter0_d)">
<path d="M24.2845 10.8439C24.2158 10.4876 24.1126 10.1313 23.9407 9.8047V9.775C23.9063 9.68593 23.8376 9.59685 23.7688 9.50777C23.7688 9.47808 23.7344 9.47808 23.7344 9.44839C23.7001 9.35931 23.6313 9.29992 23.5625 9.21085C23.5282 9.18115 23.5282 9.15146 23.4938 9.12177C22.6343 8.02315 21.1903 7.31053 19.54 7.31053H17.8554H10.1197C8.98518 7.31053 8.09129 6.53852 8.09129 5.55867C8.09129 4.57882 8.98518 3.80681 10.1197 3.80681H17.8554H18.2335C19.3681 3.80681 20.262 3.03481 20.262 2.05496C20.262 1.07511 19.3681 0.303101 18.2335 0.303101H8.81328C6.16597 0.303101 4 2.17373 4 4.46005V6.71668C4 6.92452 4.03438 7.13237 4.06876 7.34022C4.13752 7.69653 4.24066 8.05284 4.41257 8.37946V8.40915C4.44695 8.49823 4.51571 8.5873 4.58447 8.67638C4.58447 8.70607 4.61885 8.70607 4.61885 8.73577C4.65323 8.82484 4.72199 8.88423 4.79075 8.97331C4.82513 9.003 4.82513 9.03269 4.85951 9.03269C5.71903 10.1313 7.16301 10.8439 8.81328 10.8439H10.4979H18.2335C19.3681 10.8439 20.262 11.6159 20.262 12.5958C20.262 13.5756 19.3681 14.3476 18.2335 14.3476H10.4979H10.1197C8.98518 14.3476 8.09129 15.1196 8.09129 16.0995C8.09129 17.0794 8.98518 17.8514 10.1197 17.8514H19.5744C22.2217 17.8514 24.3877 15.9807 24.3877 13.6944V11.4378C24.3533 11.2596 24.3189 11.0518 24.2845 10.8439Z" fill="white"/>
<path d="M24.2845 38.9925C24.2158 38.6362 24.0782 38.2799 23.9063 37.9236V37.8939C23.872 37.8048 23.8032 37.7157 23.7344 37.6267C23.7344 37.597 23.7001 37.597 23.7001 37.5673C23.6657 37.4782 23.5969 37.4188 23.5282 37.3297C23.4938 37.3 23.4938 37.2703 23.4594 37.2407C22.5999 36.142 21.1559 35.4294 19.5056 35.4294H18.1992H16.1707H14.1423C13.0077 35.4294 12.1138 36.2014 12.1138 37.1813C12.1138 38.1611 13.0077 38.9331 14.1423 38.9331H16.1707H18.1992C19.3337 38.9331 20.2276 39.7051 20.2276 40.685C20.2276 41.6649 19.3337 42.4369 18.1992 42.4369H10.1197C8.98518 42.4369 8.09128 41.6649 8.09128 40.685V33.6478C8.09128 32.668 8.98518 31.896 10.1197 31.896H18.2679C19.4025 31.896 20.2964 31.1239 20.2964 30.1441C20.2964 29.1642 19.4025 28.3922 18.2679 28.3922H8.81328C6.16597 28.3922 4 30.2629 4 32.5492V41.8133C4 44.0997 6.16597 45.9703 8.81328 45.9703H19.54C22.1873 45.9703 24.3533 44.0997 24.3533 41.8133V39.5567C24.3533 39.3785 24.3189 39.1707 24.2845 38.9925Z" fill="white"/>
<path d="M56.9117 4.46004C56.9117 2.17372 54.7457 0.303101 52.0984 0.303101H41.3717C38.7244 0.303101 36.5584 2.17372 36.5584 4.46004V13.7241C36.5584 16.0104 38.7244 17.881 41.3717 17.881H52.0984C54.7457 17.881 56.9117 16.0104 56.9117 13.7241V4.46004ZM52.8204 12.5958C52.8204 13.5756 51.9265 14.3476 50.792 14.3476H42.6438C41.5092 14.3476 40.6153 13.5756 40.6153 12.5958V5.58835C40.6153 4.6085 41.5092 3.8365 42.6438 3.8365H50.792C51.9265 3.8365 52.8204 4.6085 52.8204 5.58835V12.5958Z" fill="white"/>
<path d="M56.9117 32.5789C56.9117 30.2925 54.7457 28.4219 52.0984 28.4219H41.3717C38.7244 28.4219 36.5584 30.2925 36.5584 32.5789V41.8431C36.5584 44.1295 38.7244 46.0002 41.3717 46.0002H52.0984C54.7457 46.0002 56.9117 44.1295 56.9117 41.8431V32.5789ZM52.8204 40.7148C52.8204 41.6947 51.9265 42.4667 50.792 42.4667H42.6438C41.5092 42.4667 40.6153 41.6947 40.6153 40.7148V33.6776C40.6153 32.6977 41.5092 31.9257 42.6438 31.9257H50.792C51.9265 31.9257 52.8204 32.6977 52.8204 33.6776V40.7148Z" fill="white"/>
<path d="M71.2484 39.9734H69.0824V45.14H68.4636V39.9734H66.2976V39.4983H71.2828V39.9734H71.2484Z" fill="white"/>
<path d="M76.2336 44.6946L76.268 45.1103C75.6835 45.14 74.7552 45.1697 73.4831 45.1697C73.1393 45.1697 72.8643 45.0806 72.658 44.9024C72.4517 44.7243 72.3486 44.5164 72.3486 44.2195V40.4187C72.3486 40.1218 72.4517 39.9139 72.658 39.7358C72.8643 39.5576 73.1393 39.4685 73.4831 39.4685C74.7552 39.4685 75.6835 39.4982 76.268 39.5279L76.2336 39.9436H73.5863C73.1737 39.9436 72.9674 40.1515 72.9674 40.5375V41.9331H75.8898V42.3785H72.9674V44.1304C72.9674 44.5164 73.1737 44.7243 73.5863 44.7243H76.2336V44.6946Z" fill="white"/>
<path d="M81.6313 44.6646L81.7001 45.0803C81.2188 45.199 80.5655 45.2584 79.8092 45.2584C78.8809 45.2584 78.2277 45.0506 77.8495 44.6052C77.4713 44.1598 77.2994 43.4175 77.2994 42.3485C77.2994 41.2796 77.4713 40.5075 77.8495 40.0918C78.2277 39.6464 78.8809 39.4386 79.8092 39.4386C80.4968 39.4386 81.0812 39.498 81.5626 39.5871L81.4938 40.0028C81.0125 39.9434 80.4624 39.9434 79.8092 39.9434C79.1215 39.9434 78.6402 40.1215 78.3652 40.4779C78.0901 40.8342 77.9526 41.4577 77.9526 42.3782C77.9526 43.2987 78.0901 43.9222 78.3652 44.2786C78.6402 44.6349 79.1215 44.813 79.8092 44.813C80.5655 44.7536 81.15 44.7239 81.6313 44.6646Z" fill="white"/>
<path d="M87.8198 39.4982V44.9321C87.8198 45.0806 87.7511 45.1697 87.5792 45.1697H86.9259C86.7884 45.1697 86.6853 45.1103 86.6165 44.9915L84.1067 40.7156C83.8661 40.2999 83.7629 40.0624 83.7285 40.0327H83.5566C83.5566 40.1812 83.591 40.4187 83.591 40.7156V45.14H82.9722V39.7061C82.9722 39.5576 83.0409 39.4685 83.2128 39.4685H83.8661C84.0036 39.4685 84.1067 39.5279 84.1755 39.6467L86.6165 43.8335C86.8228 44.1601 86.9603 44.4273 87.0634 44.6055H87.2697C87.2353 44.3383 87.2354 44.071 87.2354 43.8038V39.4982H87.8198Z" fill="white"/>
<path d="M89.9171 40.0321C90.2953 39.6164 90.9485 39.3789 91.8768 39.3789C92.805 39.3789 93.4583 39.5868 93.8365 40.0321C94.2146 40.4478 94.3865 41.2198 94.3865 42.3185C94.3865 43.4171 94.2146 44.1594 93.8365 44.6048C93.4583 45.0205 92.805 45.258 91.8768 45.258C90.9485 45.258 90.2953 45.0502 89.9171 44.6048C89.5389 44.1891 89.367 43.4171 89.367 42.3185C89.3326 41.2198 89.5389 40.4478 89.9171 40.0321ZM93.3207 40.3885C93.0457 40.0321 92.5644 39.854 91.8768 39.854C91.1892 39.854 90.6735 40.0321 90.3984 40.3885C90.1234 40.7448 89.9858 41.398 89.9858 42.2888C89.9858 43.2093 90.1234 43.8328 90.3984 44.1891C90.6735 44.5454 91.1548 44.7236 91.8768 44.7236C92.5644 44.7236 93.0801 44.5454 93.3207 44.1891C93.5614 43.8328 93.7333 43.1796 93.7333 42.2888C93.7333 41.398 93.5958 40.7448 93.3207 40.3885Z" fill="white"/>
<path d="M96.5181 39.4983V44.1007C96.5181 44.4867 96.7588 44.6945 97.2057 44.6945H99.6468L99.6811 45.1102C99.0279 45.1399 98.1684 45.1696 97.137 45.1696C96.7244 45.1696 96.4494 45.0805 96.2431 44.9024C96.0368 44.7242 95.9337 44.4867 95.9337 44.1898V39.4983H96.5181Z" fill="white"/>
<path d="M100.85 40.0321C101.228 39.6164 101.881 39.3789 102.81 39.3789C103.738 39.3789 104.391 39.5868 104.769 40.0321C105.148 40.4478 105.32 41.2198 105.32 42.3185C105.32 43.4171 105.148 44.1594 104.769 44.6048C104.391 45.0205 103.738 45.258 102.81 45.258C101.881 45.258 101.228 45.0502 100.85 44.6048C100.472 44.1891 100.3 43.4171 100.3 42.3185C100.3 41.2198 100.506 40.4478 100.85 40.0321ZM104.288 40.3885C104.013 40.0321 103.532 39.854 102.844 39.854C102.157 39.854 101.641 40.0321 101.366 40.3885C101.091 40.7448 100.953 41.398 100.953 42.2888C100.953 43.2093 101.091 43.8328 101.366 44.1891C101.641 44.5454 102.122 44.7236 102.844 44.7236C103.532 44.7236 104.047 44.5454 104.288 44.1891C104.529 43.8328 104.701 43.1796 104.701 42.2888C104.701 41.398 104.563 40.7448 104.288 40.3885Z" fill="white"/>
<path d="M111.233 41.8731V45.1393H110.786L110.717 44.4861C110.167 44.9908 109.514 45.2284 108.723 45.2284C107.967 45.2284 107.451 44.9908 107.107 44.5455C106.798 44.0704 106.626 43.328 106.626 42.3185C106.626 41.2198 106.832 40.4478 107.211 40.0321C107.589 39.6164 108.276 39.4086 109.273 39.4086C109.995 39.4086 110.614 39.468 111.096 39.557L111.027 39.9727C110.442 39.9134 109.892 39.8837 109.308 39.8837C108.792 39.8837 108.379 39.943 108.104 40.0915C107.829 40.24 107.623 40.4775 107.486 40.8338C107.348 41.1901 107.279 41.6949 107.279 42.3482C107.279 43.239 107.382 43.8625 107.623 44.2188C107.864 44.6048 108.276 44.783 108.861 44.783C109.101 44.783 109.342 44.7533 109.548 44.6642C109.789 44.6048 109.961 44.5158 110.098 44.4564C110.236 44.397 110.408 44.2782 110.614 44.1298V41.8731H111.233Z" fill="white"/>
<path d="M113.399 45.14H112.78V39.4983H113.399V45.14Z" fill="white"/>
<path d="M118.625 43.2693H115.771L115.049 45.14H114.396L116.596 39.6468C116.631 39.5577 116.699 39.4983 116.837 39.4983H117.559C117.697 39.4983 117.765 39.5577 117.8 39.6468L120 45.14H119.347L118.625 43.2693ZM118.453 42.7942L117.525 40.3594C117.525 40.3297 117.49 40.2703 117.456 40.1515C117.421 40.0328 117.387 39.9437 117.353 39.914H117.078L116.906 40.3594L115.978 42.7942H118.453Z" fill="white"/>
</g>
<defs>
<filter id="filter0_d" x="0" y="0.303101" width="124" height="53.6971" filterUnits="userSpaceOnUse" color-interpolation-filters="sRGB">
<feFlood flood-opacity="0" result="BackgroundImageFix"/>
<feColorMatrix in="SourceAlpha" type="matrix" values="0 0 0 0 0 0 0 0 0 0 0 0 0 0 0 0 0 0 127 0" result="hardAlpha"/>
<feOffset dy="4"/>
<feGaussianBlur stdDeviation="2"/>
<feComposite in2="hardAlpha" operator="out"/>
<feColorMatrix type="matrix" values="0 0 0 0 0 0 0 0 0 0 0 0 0 0 0 0 0 0 0.25 0"/>
<feBlend mode="normal" in2="BackgroundImageFix" result="effect1_dropShadow"/>
<feBlend mode="normal" in="SourceGraphic" in2="effect1_dropShadow" result="shape"/>
</filter>
</defs>
</svg>
